<svg xmlns="http://www.w3.org/2000/svg" viewBox="0 0 64 64">
  <defs>
    <linearGradient id="bg" x1="10" y1="8" x2="55" y2="58" gradientUnits="userSpaceOnUse">
      <stop stop-color="#fb923c"/>
      <stop offset="1" stop-color="#f97316"/>
    </linearGradient>
  </defs>
  <rect width="64" height="64" rx="16" fill="#0d0f14"/>
  <rect x="5" y="5" width="54" height="54" rx="14" fill="url(#bg)"/>
  <path
    d="M32 16.5c-7.2 0-12.7 5.6-12.7 12.9v7.5l-3.1 3.5a2 2 0 0 0 1.5 3.3h28.6a2 2 0 0 0 1.5-3.3l-3.1-3.5v-7.5c0-7.3-5.5-12.9-12.7-12.9Z"
    fill="#fff"
  />
  <path d="M27 47h10a5.1 5.1 0 0 1-10 0Z" fill="#fff"/>
  <path
    d="m25.4 31.7 4.4 4.3 8.7-9"
    fill="none"
    stroke="#f97316"
    stroke-width="3.4"
    stroke-linecap="round"
    stroke-linejoin="round"
  />
</svg>
